<?xml version="1.0" standalone="no"?>
<!DOCTYPE svg PUBLIC "-//W3C//DTD SVG 20010904//EN"
 "http://www.w3.org/TR/2001/REC-SVG-20010904/DTD/svg10.dtd">
<svg version="1.0" xmlns="http://www.w3.org/2000/svg"
 width="116.000000pt" height="116.000000pt" viewBox="0 0 116.000000 116.000000"
 preserveAspectRatio="xMidYMid meet">
<metadata>
Created by potrace 1.11, written by Peter Selinger 2001-2013
</metadata>
<g transform="translate(0.000000,116.000000) scale(0.100000,-0.100000)"
fill="#000000" stroke="none">
<path d="M956 1034 c-44 -15 -93 -24 -130 -24 -34 0 -90 -4 -126 -10 -36 -5
-90 -11 -120 -15 -148 -17 -265 -63 -340 -135 -47 -44 -66 -81 -91 -177 -24
-96 -24 -145 1 -225 36 -114 31 -128 -76 -239 -41 -42 -74 -84 -74 -93 0 -27
13 -18 64 45 75 93 81 95 189 80 51 -7 101 -15 112 -18 45 -11 164 -8 224 4
122 25 209 89 296 215 63 91 82 132 78 168 -1 14 -3 34 -4 45 -3 38 1 51 31
83 17 19 30 45 31 60 1 30 3 49 21 142 16 85 16 82 6 103 -11 21 -7 21 -92 -9z"/>
</g>
</svg>
